<?xml version="1.0" encoding="UTF-8"?>
<svg xmlns="http://www.w3.org/2000/svg" version="1.1" viewBox="0 0 48 48">
  <!-- Generator: Adobe Illustrator 28.7.1, SVG Export Plug-In . SVG Version: 1.2.0 Build 142)  -->
  <g>
    <g id="GLYPH">
      <g>
        <path d="M31,41h-2.21997l-.5-2h-8.56006l-.5,2h-2.21997c-.54999,0-1,.45001-1,1s.45001,1,1,1h14c.54999,0,1-.45001,1-1s-.45001-1-1-1Z"/>
        <path d="M41,13h-2v19c0,1.64996-1.34998,3-3,3H12c-1.65002,0-3-1.35004-3-3V13h-2c-1.09998,0-2,.89996-2,2v20c0,1.10455.89545,2,2,2h34c1.10455,0,2-.89545,2-2V15c0-1.10004-.90002-2-2-2Z"/>
        <path d="M24,23c4.96228,0,9-4.03729,9-9s-4.03772-9-9-9-9,4.03723-9,9,4.03772,9,9,9ZM24.5,15h-1c-1.37891,0-2.5-1.12158-2.5-2.5,0-1.20721.86005-2.2171,2-2.4494v-1.0506c0-.55225.44727-1,1-1s1,.44775,1,1v1h1c.55273,0,1,.44775,1,1s-.44727,1-1,1h-2.5c-.27539,0-.5.22412-.5.5s.22461.5.5.5h1c1.37891,0,2.5,1.12158,2.5,2.5,0,1.20721-.86005,2.2171-2,2.4494v1.0506c0,.55225-.44727,1-1,1s-1-.44775-1-1v-1h-1c-.55273,0-1-.44775-1-1s.44727-1,1-1h2.5c.27539,0,.5-.22412.5-.5s-.22461-.5-.5-.5Z"/>
        <path d="M12,33h24c.54999,0,1-.45001,1-1V8c0-.54999-.45001-1-1-1h-3.51001c1.57001,1.90997,2.51001,4.33997,2.51001,7,0,6.52997-5.71002,11.75-12.40997,10.90997-4.93005-.60999-8.92004-4.62-9.51001-9.54999-.38-3.19.59998-6.13,2.42999-8.35999h-3.51001c-.54999,0-1,.45001-1,1v24c0,.54999.45001,1,1,1ZM30,25h4c.54999,0,1,.45001,1,1s-.45001,1-1,1h-4c-.54999,0-1-.45001-1-1s.45001-1,1-1ZM28,29h6c.54999,0,1,.45001,1,1s-.45001,1-1,1h-6c-.54999,0-1-.45001-1-1s.45001-1,1-1ZM14,25h4c.54999,0,1,.45001,1,1s-.45001,1-1,1h-4c-.54999,0-1-.45001-1-1s.45001-1,1-1ZM14,29h6c.54999,0,1,.45001,1,1s-.45001,1-1,1h-6c-.54999,0-1-.45001-1-1s.45001-1,1-1Z"/>
      </g>
    </g>
  </g>
</svg>