<?xml version="1.0" encoding="UTF-8"?>
<svg xmlns="http://www.w3.org/2000/svg" version="1.1" viewBox="0 0 48 48">
  <!-- Generator: Adobe Illustrator 28.7.1, SVG Export Plug-In . SVG Version: 1.2.0 Build 142)  -->
  <g>
    <g id="GLYPH">
      <g>
        <path d="M31,41h-2.21997l-.5-2h-8.56006l-.5,2h-2.21997c-.54999,0-1,.45001-1,1s.45001,1,1,1h14c.54999,0,1-.45001,1-1s-.45001-1-1-1Z"/>
        <path d="M24,25c5.51404,0,10-4.48596,10-10s-4.48596-10-10-10-10,4.48596-10,10,4.48596,10,10,10ZM25.9707,19.57227c-.2912.41736-.9552.55273-1.39258.24805-.34375-.24023-.8125-.24023-1.15625,0-.45117.31543-1.07422.20508-1.39258-.24805-.31543-.45215-.20508-1.07617.24805-1.39258,1.01172-.70703,2.43359-.70703,3.44531,0,.45312.31635.56348.94031.24805,1.39258ZM28.25488,16.31055c-.30127.4234-.95325.54883-1.39453.23438-1.66602-1.18359-4.05469-1.18359-5.7207,0-.45117.32129-1.0752.21484-1.39453-.23438-.32031-.4502-.21484-1.0752.23438-1.39453,2.34766-1.66992,5.69336-1.66992,8.04102,0,.44922.31927.55469.94427.23438,1.39453ZM17.69434,11.63281c1.85156-1.30371,4.03223-1.99316,6.30566-1.99316s4.4541.68945,6.30566,1.99316c.45215.31738.56055.94135.24225,1.39252-.30273.42902-.94519.55719-1.39264.24225-1.51367-1.06445-3.2959-1.62793-5.15527-1.62793s-3.6416.56348-5.15527,1.62793c-.4502.31738-1.0752.21094-1.39258-.24219-.31836-.45117-.20996-1.0752.24219-1.39258Z"/>
        <path d="M41,13h-5.16998c.10999.64996.16998,1.32001.16998,2h3c.55273,0,1,.44727,1,1v18c0,.55273-.44727,1-1,1H9c-.55273,0-1-.44727-1-1v-18c0-.55273.44727-1,1-1h3c0-.67999.06-1.35004.16998-2h-5.16998c-1.09998,0-2,.89996-2,2v20c0,1.09998.90002,2,2,2h34c1.09998,0,2-.90002,2-2V15c0-1.10004-.90002-2-2-2Z"/>
        <path d="M10,29h28v-12h-2.17999c-.96002,5.66998-5.88,10-11.82001,10s-10.85999-4.33002-11.82001-10h-2.17999v12Z"/>
        <rect x="10" y="31" width="28" height="2"/>
      </g>
    </g>
  </g>
</svg>