<?xml version="1.0" encoding="UTF-8"?>
<svg xmlns="http://www.w3.org/2000/svg" version="1.1" viewBox="0 0 48 48">
  <!-- Generator: Adobe Illustrator 28.7.1, SVG Export Plug-In . SVG Version: 1.2.0 Build 142)  -->
  <g>
    <g id="GLYPH">
      <g>
        <path d="M42,27h-10c-1.65686,0-3,1.34314-3,3s1.34314,3,3,3h10c.55231,0,1-.44775,1-1v-4c0-.55231-.44769-1-1-1ZM32,31c-.55231,0-1-.44775-1-1,0-.55231.44769-1,1-1s1,.44769,1,1c0,.55225-.44769,1-1,1Z"/>
        <path d="M21,23c4.96228,0,9-4.03729,9-9s-4.03772-9-9-9-9,4.03723-9,9,4.03772,9,9,9ZM21.5,15h-1c-1.37891,0-2.5-1.12158-2.5-2.5,0-1.20721.86005-2.2171,2-2.4494v-1.0506c0-.55225.44727-1,1-1s1,.44775,1,1v1h1c.55273,0,1,.44775,1,1s-.44727,1-1,1h-2.5c-.27539,0-.5.22412-.5.5s.22461.5.5.5h1c1.37891,0,2.5,1.12158,2.5,2.5,0,1.20721-.86005,2.2171-2,2.4494v1.0506c0,.55225-.44727,1-1,1s-1-.44775-1-1v-1h-1c-.55273,0-1-.44775-1-1s.44727-1,1-1h2.5c.27539,0,.5-.22412.5-.5s-.22461-.5-.5-.5Z"/>
        <path d="M27,30c0-2.75,2.25-5,5-5h7v-8c0-1.10004-.90002-2-2-2h-5.04999c-.47003,5.26996-4.67999,9.47998-9.95001,9.95001v8.22998c1.15997.41998,2,1.52002,2,2.82001,0,1.64996-1.34998,3-3,3s-3-1.35004-3-3c0-1.29999.84003-2.40002,2-2.82001v-8.22998c-.81-.07001-1.59998-.24005-2.34998-.48004l-2.15002,2.87c.31.48004.5,1.05005.5,1.66003,0,1.64996-1.34998,3-3,3s-3-1.35004-3-3,1.34998-3,3-3c.31,0,.60999.06.89001.14996l1.87-2.48999c-3.15002-1.71997-5.38-4.91998-5.71002-8.65997h-1.04999c-2.21002,0-4,1.78998-4,4v20c0,2.20996,1.78998,4,4,4h28c1.09998,0,2-.90002,2-2v-6h-7c-2.75,0-5-2.25-5-5Z"/>
        <circle cx="21" cy="36" r="1"/>
        <circle cx="13" cy="29" r="1"/>
      </g>
    </g>
  </g>
</svg>