<?xml version="1.0" encoding="UTF-8"?>
<svg xmlns="http://www.w3.org/2000/svg" version="1.1" viewBox="0 0 48 48">
  <!-- Generator: Adobe Illustrator 28.7.1, SVG Export Plug-In . SVG Version: 1.2.0 Build 142)  -->
  <g>
    <g id="GLYPH">
      <g>
        <path d="M13,21c4.41101,0,8-3.58856,8-8s-3.58899-8-8-8-8,3.5885-8,8,3.58899,8,8,8ZM9.29297,9.29297c.39062-.39062,1.02344-.39062,1.41406,0l2.29297,2.29297,2.29297-2.29297c.39062-.39062,1.02344-.39062,1.41406,0s.39062,1.02344,0,1.41406l-2.70703,2.70703v.58594h1c.55225,0,1,.44727,1,1s-.44775,1-1,1h-1v1c0,.55273-.44775,1-1,1s-1-.44727-1-1v-1h-1c-.55225,0-1-.44727-1-1s.44775-1,1-1h1v-.58594l-2.70703-2.70703c-.39062-.39062-.39062-1.02344,0-1.41406Z"/>
        <path d="M35,21c4.41101,0,8-3.58856,8-8s-3.58899-8-8-8-8,3.5885-8,8,3.58899,8,8,8ZM35.5,14h-1c-1.37842,0-2.5-1.12109-2.5-2.5,0-1.20764.86029-2.21716,2-2.44946v-1.05054c0-.55273.44775-1,1-1s1,.44727,1,1v1h1c.55225,0,1,.44727,1,1s-.44775,1-1,1h-2.5c-.27588,0-.5.22461-.5.5s.22412.5.5.5h1c1.37842,0,2.5,1.12109,2.5,2.5,0,1.20764-.86029,2.21716-2,2.44946v1.05054c0,.55273-.44775,1-1,1s-1-.44727-1-1v-1h-1c-.55225,0-1-.44727-1-1s.44775-1,1-1h2.5c.27588,0,.5-.22461.5-.5s-.22412-.5-.5-.5Z"/>
        <rect x="9" y="33" width="6" height="2"/>
        <path d="M35,23c-4.09003,0-7.62-2.47003-9.15997-6h-3.68005c-1.53998,3.52997-5.06995,6-9.15997,6-3.26001,0-6.16998-1.57001-8-4v20h38v-20c-1.83002,2.42999-4.73999,4-8,4ZM17,36c0,.54999-.45001,1-1,1h-8c-.54999,0-1-.45001-1-1v-4c0-.54999.45001-1,1-1h8c.54999,0,1,.45001,1,1v4ZM40,37h-8c-.54999,0-1-.45001-1-1s.45001-1,1-1h8c.54999,0,1,.45001,1,1s-.45001,1-1,1ZM40,33h-8c-.54999,0-1-.45001-1-1s.45001-1,1-1h8c.54999,0,1,.45001,1,1s-.45001,1-1,1Z"/>
        <path d="M7,43h34c1.09998,0,2-.90002,2-2H5c0,1.09998.90002,2,2,2Z"/>
      </g>
    </g>
  </g>
</svg>