<?xml version="1.0" encoding="UTF-8"?>
<svg xmlns="http://www.w3.org/2000/svg" version="1.1" viewBox="0 0 48 48">
  <!-- Generator: Adobe Illustrator 28.7.1, SVG Export Plug-In . SVG Version: 1.2.0 Build 142)  -->
  <g>
    <g id="GLYPH">
      <g>
        <rect x="19" y="21" width="2" height="2"/>
        <path d="M42,17h-26c-.54999,0-1,.45001-1,1v14c0,.54999.45001,1,1,1h26c.54999,0,1-.45001,1-1v-14c0-.54999-.45001-1-1-1ZM23,24c0,.54999-.45001,1-1,1h-4c-.54999,0-1-.45001-1-1v-4c0-.54999.45001-1,1-1h4c.54999,0,1,.45001,1,1v4ZM40,31h-6c-.54999,0-1-.45001-1-1s.45001-1,1-1h6c.54999,0,1,.45001,1,1s-.45001,1-1,1ZM40,27h-6c-.54999,0-1-.45001-1-1s.45001-1,1-1h6c.54999,0,1,.45001,1,1s-.45001,1-1,1Z"/>
        <path d="M16,15h10v-5h-2.59003l-1.69995,1.70996c-.19.18005-.44.29004-.71002.29004h-6c-.27002,0-.52002-.10999-.71002-.29004l-1.69995-1.70996h-2.59003v27c0,.54999.45001,1,1,1h14c.54999,0,1-.45001,1-1v-2h-10c-1.65997,0-3-1.34003-3-3v-14c0-1.66003,1.34003-3,3-3Z"/>
        <path d="M28,37c0,1.6543-1.3457,3-3,3h-14c-1.6543,0-3-1.3457-3-3V9c0-.55225.44775-1,1-1h4c.26514,0,.51953.10547.70703.29297l1.70703,1.70703h5.17188l1.70703-1.70703c.1875-.1875.44189-.29297.70703-.29297h4c.55225,0,1,.44775,1,1v6h3v-6c0-2.20917-1.79083-4-4-4H9c-2.20917,0-4,1.79083-4,4v30c0,2.20911,1.79083,4,4,4h18c2.20917,0,4-1.79089,4-4v-4h-3v2Z"/>
      </g>
    </g>
  </g>
</svg>